Results
version=1
nRows=22
nColumns=24
inDegrees=yes
endheader
time	pelvis_tilt	pelvis_list	pelvis_rotation	pelvis_tx	pelvis_ty	pelvis_tz	hip_flexion_r	hip_adduction_r	hip_rotation_r	knee_angle_r	ankle_angle_r	subtalar_angle_r	mtp_angle_r	hip_flexion_l	hip_adduction_l	hip_rotation_l	knee_angle_l	ankle_angle_l	subtalar_angle_l	mtp_angle_l	lumbar_extension	lumbar_bending	lumbar_rotation
      0.50400000	     -4.69407996	      1.37545941	     11.51728812	     -0.86797614	      0.88761839	      0.29743357	     31.13803208	     -3.17936248	    -11.82045389	     -4.97254198	      2.48220317	      0.57032516	      4.26524216	    -11.58344532	      3.09909732	      6.17751487	     -9.35872080	     17.02755936	      2.38183823	      7.98356729	     -0.98961793	     -3.88260479	    -11.83764064
      0.50816667	     -4.72772818	      1.31115552	     11.54341696	     -0.86185204	      0.88666320	      0.29770854	     31.24778318	     -3.00276148	    -11.66818529	     -5.50692562	      2.42512331	      0.68616656	      4.23264718	    -11.58239897	      2.93272677	      5.95918337	    -10.11098141	     17.16864185	      2.80382962	      8.08516463	     -0.90059733	     -3.78257014	    -11.66997585
      0.51233333	     -4.73353120	      1.21974299	     11.56433249	     -0.85566941	      0.88579074	      0.29801500	     31.29755948	     -2.78014649	    -11.44995007	     -6.02903690	      2.24097768	      0.60633473	      4.23583459	    -11.58101042	      2.72440609	      5.69215668	    -10.91835228	     17.29685431	      3.28547261	      8.24471631	     -0.83621274	     -3.64163138	    -11.63795272
      0.51650000	     -4.74821184	      1.11629318	     11.56567734	     -0.84942598	      0.88493426	      0.29834146	     31.35446054	     -2.53712703	    -11.19841589	     -6.59214501	      2.01310388	      0.50524664	      4.26669726	    -11.56465828	      2.51117758	      5.45437153	    -11.74521241	     17.40358515	      3.65243463	      8.40525968	     -0.74337177	     -3.48163732	    -11.55875110
      0.52066667	     -4.75015152	      1.01297764	     11.56627648	     -0.84315474	      0.88414584	      0.29866845	     31.39341648	     -2.29082787	    -10.94908195	     -7.18800317	      1.69706889	      0.30629119	      4.32247588	    -11.53651937	      2.28735931	      5.15965004	    -12.61654255	     17.41143995	      4.12281619	      8.60695755	     -0.66417450	     -3.32255827	    -11.47849696
      0.52483333	     -4.71190386	      0.89889369	     11.56477493	     -0.83683506	      0.88345311	      0.29900485	     31.39011398	     -2.02466408	    -10.71474594	     -7.82371464	      1.33791050	     -0.00159339	      4.43724163	    -11.53328103	      2.03622667	      4.84821618	    -13.52310962	     17.40528350	      4.67531647	      8.94942060	     -0.62934115	     -3.13662457	    -11.37492166
      0.52900000	     -4.69849876	      0.77654899	     11.55918510	     -0.83049043	      0.88276228	      0.29932999	     31.40953663	     -1.75984261	    -10.50109073	     -8.47230241	      0.91329646	     -0.18173173	      5.80532321	    -11.46574589	      1.78164252	      4.52222824	    -14.49934697	     17.33013225	      5.09820738	     12.69763812	     -0.56450495	     -2.94407043	    -11.34047537
      0.53316667	     -4.68751144	      0.65601150	     11.52890867	     -0.82409452	      0.88212953	      0.29970325	     31.41772716	     -1.46994349	    -10.15539586	     -9.11189588	      0.40412598	     -0.70666731	      5.81129125	    -11.41641767	      1.54156530	      4.29313476	    -15.43695894	     17.13093871	      5.39060303	     12.80071211	     -0.47550021	     -2.74988127	    -11.15344384
      0.53733333	     -4.66952639	      0.51491604	     11.49867239	     -0.81766845	      0.88153651	      0.30008064	     31.41961780	     -1.16406771	     -9.85354986	     -9.76515099	     -0.12677064	     -1.15898904	      5.85182541	    -11.31900986	      1.26512711	      3.98124620	    -16.48690161	     16.96007892	      5.83629769	     12.99229004	     -0.39442030	     -2.53050610	    -11.01761760
      0.54150000	     -4.64998663	      0.38070241	     11.46263986	     -0.81122988	      0.88099822	      0.30046797	     31.42223914	     -0.86242448	     -9.53637082	    -10.43782611	     -0.69587383	     -1.66500921	      5.91326026	    -11.20833716	      0.99648793	      3.68880485	    -17.55663462	     16.72476463	      6.22937171	     13.24908797	     -0.30884122	     -2.31182597	    -10.86957330
      0.54566667	     -4.62795784	      0.23719238	     11.41660048	     -0.80477590	      0.88050549	      0.30086729	     31.42414422	     -0.54862020	     -9.21228034	    -11.11742505	     -1.29381099	     -2.21272915	      5.99139429	    -11.06360134	      0.71519677	      3.38340377	    -18.69826154	     16.42858462	      6.62463629	     13.56914999	     -0.22223510	     -2.08459111	    -10.71213077
      0.54983333	     -4.59880010	      0.08954326	     11.36507690	     -0.79829874	      0.88007512	      0.30128110	     31.41816467	     -0.22809203	     -8.88409758	    -11.80511317	     -1.89712805	     -2.79615037	      6.08841604	    -10.90305882	      0.42474561	      3.08210658	    -19.87346499	     16.08602063	      7.00875802	     13.98040427	     -0.14491733	     -1.84858414	    -10.54509605
      0.55400000	     -4.58401988	     -0.05854872	     11.30424936	     -0.79180662	      0.87967452	      0.30170989	     31.43346776	      0.09121411	     -8.54816603	    -12.51146327	     -2.49563850	     -3.39148420	      6.18606203	    -10.69484876	      0.13631401	      2.78783333	    -21.10656018	     15.64661632	      7.35915819	     14.43196070	     -0.04628081	     -1.61693244	    -10.36769173
      0.55816667	     -4.52552244	     -0.21148796	     11.23900379	     -0.78527619	      0.87938007	      0.30213899	     31.40983187	      0.41477509	     -8.27323602	    -13.24844727	     -2.99808412	     -3.87887245	      7.47136447	    -10.50554813	     -0.18545657	      2.42381426	    -22.36447211	     15.03689170	      7.77126499	     20.34899510	      0.00272231	     -1.35515979	    -10.25577989
      0.56233333	     -4.52628182	     -0.35624916	     11.16315963	     -0.77878533	      0.87906216	      0.30257723	     31.45092957	      0.72799094	     -7.92941357	    -13.98751918	     -3.55134574	     -4.50434892	      7.44847176	    -10.23083040	     -0.45401587	      2.22022321	    -23.67484653	     14.47924329	      7.89392250	     20.43280144	      0.12801632	     -1.12600848	    -10.02832720
      0.56650000	     -4.49961706	     -0.51191356	     11.08499203	     -0.77228655	      0.87881653	      0.30304544	     31.47147488	      1.05471565	     -7.60954568	    -14.75458616	     -3.99543305	     -5.08348866	      7.43256079	     -9.93523863	     -0.76355443	      1.93374981	    -25.06368236	     13.87668848	      8.22076591	     20.59718083	      0.21499544	     -0.87765991	     -9.83198451
      0.57066667	     -4.47577086	     -0.66568085	     11.00324503	     -0.76579085	      0.87861708	      0.30352465	     31.49923595	      1.37657072	     -7.30236218	    -15.54230553	     -4.35696169	     -5.62277863	      7.41853377	     -9.60234739	     -1.07180158	      1.67084443	    -26.50197670	     13.18258972	      8.50363682	     20.81455505	      0.30443046	     -0.63361754	     -9.64337195
      0.57483333	     -4.44456657	     -0.82715664	     10.91739834	     -0.75929723	      0.87846611	      0.30402101	     31.52333301	      1.70676493	     -7.01072792	    -16.34688563	     -4.63691090	     -6.13771917	      7.40303614	     -9.23794752	     -1.39939754	      1.38992149	    -27.99382106	     12.44710641	      8.80158615	     21.09859723	      0.38627050	     -0.37524142	     -9.44895762
      0.57900000	     -4.37723897	     -1.00282691	     10.82397772	     -0.75278643	      0.87841655	      0.30453460	     31.50303985	      2.06208709	     -6.72224250	    -17.15186058	     -4.79977204	     -6.63255527	      7.18140598	     -8.88494726	     -1.75608713	      1.10670446	    -29.50449300	     11.56031904	      8.99333399	     25.76644946	      0.42530878	     -0.07503939	     -9.28800430
      0.58316667	     -4.36119373	     -1.15152441	     10.74405870	     -0.74634233	      0.87833181	      0.30502172	     31.55426214	      2.36099251	     -6.49197327	    -18.00863121	     -4.87160079	     -6.98476718	      7.17534153	     -8.43124107	     -2.07011155	      0.88672308	    -31.09217655	     10.67936403	      9.20098469	     25.81065196	      0.52110406	      0.15481001	     -9.10009021
      0.58733333	     -4.32159436	     -1.31569037	     10.65493608	     -0.73989545	      0.87831511	      0.30555170	     31.57220229	      2.68887133	     -6.25602466	    -18.85363666	     -4.86249374	     -7.35595666	      7.16091681	     -7.96528556	     -2.41770644	      0.64120470	    -32.71827588	      9.75000097	      9.42726282	     25.89974613	      0.58857213	      0.41617822	     -8.91671166
      0.59150000	     -4.27258826	     -1.48296732	     10.56687942	     -0.73347324	      0.87835117	      0.30608066	     31.57188909	      3.01870717	     -6.04079788	    -19.68992165	     -4.76292602	     -7.67278993	      7.13941830	     -7.47613305	     -2.77421159	      0.41569808	    -34.38158847	      8.73878427	      9.60632524	     26.01729335	      0.63910368	      0.68217118	     -8.74457402
